<?xml version="1.0" encoding="iso-8859-1"?>
<!-- Generator: Adobe Illustrator 22.1.0, SVG Export Plug-In . SVG Version: 6.00 Build 0)  -->
<svg version="1.1" id="Layer_1" xmlns="http://www.w3.org/2000/svg" xmlns:xlink="http://www.w3.org/1999/xlink" x="0px" y="0px"
	 viewBox="0 0 48 48" style="enable-background:new 0 0 48 48;" xml:space="preserve">
<g>
	<polygon style="fill:#43A047;" points="43,35.112 43,13.336 24,2.447 5,13.336 5,35.112 24,46 	"/>
</g>
<g>
	<path style="fill:#FFFFFF;" d="M32.5,13c-1.381,0-2.5,1.119-2.5,2.5v11.276L18.984,14.453l-0.131-0.152
		C17.609,12.938,16.187,13,15.5,13c-1.381,0-2.5,1.119-2.5,2.5v17c0,1.381,1.119,2.5,2.5,2.5s2.5-1.119,2.5-2.5V21.141
		l11.278,12.627l0.11,0.142C30.62,35.133,32.295,35,32.5,35c1.381,0,2.5-1.119,2.5-2.5v-17C35,14.119,33.881,13,32.5,13z"/>
</g>
</svg>